<svg width="28" height="27" viewBox="0 0 28 27" fill="none" xmlns="http://www.w3.org/2000/svg">
<path d="M6.18 11.685C8.34 15.93 11.82 19.41 16.065 21.57L19.365 18.27C19.785 17.85 20.37 17.73 20.895 17.895C22.575 18.45 24.375 18.75 26.25 18.75C26.6478 18.75 27.0294 18.908 27.3107 19.1893C27.592 19.4706 27.75 19.8522 27.75 20.25V25.5C27.75 25.8978 27.592 26.2794 27.3107 26.5607C27.0294 26.842 26.6478 27 26.25 27C19.487 27 13.001 24.3134 8.21878 19.5312C3.4366 14.749 0.75 8.26302 0.75 1.5C0.75 1.10218 0.908035 0.720644 1.18934 0.43934C1.47064 0.158035 1.85218 0 2.25 0H7.5C7.89782 0 8.27936 0.158035 8.56066 0.43934C8.84196 0.720644 9 1.10218 9 1.5C9 3.375 9.3 5.175 9.855 6.855C10.02 7.38 9.9 7.965 9.48 8.385L6.18 11.685Z" fill="white"/>
</svg>
