<svg width="22" height="31" viewBox="0 0 22 31" fill="none" xmlns="http://www.w3.org/2000/svg">
<path d="M11.25 14.75C10.2554 14.75 9.30161 14.3549 8.59835 13.6517C7.89509 12.9484 7.5 11.9946 7.5 11C7.5 10.0054 7.89509 9.05161 8.59835 8.34835C9.30161 7.64509 10.2554 7.25 11.25 7.25C12.2446 7.25 13.1984 7.64509 13.9017 8.34835C14.6049 9.05161 15 10.0054 15 11C15 11.4925 14.903 11.9801 14.7145 12.4351C14.5261 12.89 14.2499 13.3034 13.9017 13.6517C13.5534 13.9999 13.14 14.2761 12.6851 14.4645C12.2301 14.653 11.7425 14.75 11.25 14.75ZM11.25 0.5C8.46523 0.5 5.79451 1.60625 3.82538 3.57538C1.85625 5.54451 0.75 8.21523 0.75 11C0.75 18.875 11.25 30.5 11.25 30.5C11.25 30.5 21.75 18.875 21.75 11C21.75 8.21523 20.6438 5.54451 18.6746 3.57538C16.7055 1.60625 14.0348 0.5 11.25 0.5Z" fill="white"/>
</svg>
