<svg width="90" height="39" viewBox="0 0 90 39" fill="none" xmlns="http://www.w3.org/2000/svg">
<path d="M0.522727 29.5V0.40909H4.04545V26.375H17.5682V29.5H0.522727ZM31.4318 29.9545C29.4621 29.9545 27.7339 29.4858 26.2472 28.5483C24.7699 27.6108 23.6146 26.2992 22.7812 24.6136C21.9574 22.928 21.5455 20.9583 21.5455 18.7045C21.5455 16.4318 21.9574 14.4479 22.7812 12.7528C23.6146 11.0578 24.7699 9.74148 26.2472 8.80398C27.7339 7.86648 29.4621 7.39773 31.4318 7.39773C33.4015 7.39773 35.125 7.86648 36.6023 8.80398C38.089 9.74148 39.2443 11.0578 40.0682 12.7528C40.9015 14.4479 41.3182 16.4318 41.3182 18.7045C41.3182 20.9583 40.9015 22.928 40.0682 24.6136C39.2443 26.2992 38.089 27.6108 36.6023 28.5483C35.125 29.4858 33.4015 29.9545 31.4318 29.9545ZM31.4318 26.9432C32.928 26.9432 34.1591 26.5597 35.125 25.7926C36.0909 25.0256 36.8059 24.017 37.2699 22.767C37.7339 21.517 37.9659 20.1629 37.9659 18.7045C37.9659 17.2462 37.7339 15.8873 37.2699 14.6278C36.8059 13.3684 36.0909 12.3504 35.125 11.5739C34.1591 10.7973 32.928 10.4091 31.4318 10.4091C29.9356 10.4091 28.7045 10.7973 27.7386 11.5739C26.7727 12.3504 26.0578 13.3684 25.5938 14.6278C25.1297 15.8873 24.8977 17.2462 24.8977 18.7045C24.8977 20.1629 25.1297 21.517 25.5938 22.767C26.0578 24.017 26.7727 25.0256 27.7386 25.7926C28.7045 26.5597 29.9356 26.9432 31.4318 26.9432ZM55.2422 38.1364C53.6229 38.1364 52.2308 37.928 51.0661 37.5114C49.9013 37.1042 48.9306 36.5644 48.1541 35.892C47.3871 35.2292 46.7763 34.5189 46.3217 33.7614L48.9922 31.8864C49.2952 32.2841 49.6787 32.7386 50.1428 33.25C50.6068 33.7708 51.2412 34.2206 52.0462 34.5994C52.8606 34.9877 53.9259 35.1818 55.2422 35.1818C57.0036 35.1818 58.4572 34.7557 59.603 33.9034C60.7488 33.0511 61.3217 31.7159 61.3217 29.8977V25.4659H61.0376C60.7914 25.8636 60.4411 26.3561 59.9865 26.9432C59.5414 27.5208 58.8975 28.0369 58.0547 28.4915C57.2214 28.9366 56.0945 29.1591 54.674 29.1591C52.9126 29.1591 51.3312 28.7424 49.9297 27.9091C48.5376 27.0758 47.4344 25.8636 46.62 24.2727C45.8151 22.6818 45.4126 20.75 45.4126 18.4773C45.4126 16.2424 45.8056 14.2964 46.5916 12.6392C47.3776 10.9725 48.4714 9.68466 49.8729 8.77557C51.2744 7.85701 52.8937 7.39773 54.7308 7.39773C56.1513 7.39773 57.2782 7.63447 58.1115 8.10795C58.9543 8.57197 59.5982 9.10227 60.0433 9.69886C60.4979 10.286 60.8482 10.7689 61.0945 11.1477H61.4354V7.68182H64.674V30.125C64.674 32 64.2479 33.5246 63.3956 34.6989C62.5528 35.8826 61.4164 36.7491 59.9865 37.2983C58.5661 37.857 56.9846 38.1364 55.2422 38.1364ZM55.1286 26.1477C56.4732 26.1477 57.6096 25.84 58.5376 25.2244C59.4657 24.6089 60.1712 23.7235 60.6541 22.5682C61.1371 21.4129 61.3786 20.0303 61.3786 18.4205C61.3786 16.8485 61.1418 15.4612 60.6683 14.2585C60.1948 13.0559 59.4941 12.1136 58.5661 11.4318C57.638 10.75 56.4922 10.4091 55.1286 10.4091C53.7081 10.4091 52.5244 10.7689 51.5774 11.4886C50.6399 12.2083 49.9344 13.1742 49.4609 14.3864C48.9969 15.5985 48.7649 16.9432 48.7649 18.4205C48.7649 19.9356 49.0017 21.2756 49.4751 22.4403C49.9581 23.5956 50.6683 24.5047 51.6058 25.1676C52.5528 25.821 53.727 26.1477 55.1286 26.1477ZM79.674 29.9545C77.7043 29.9545 75.9761 29.4858 74.4893 28.5483C73.0121 27.6108 71.8568 26.2992 71.0234 24.6136C70.1996 22.928 69.7876 20.9583 69.7876 18.7045C69.7876 16.4318 70.1996 14.4479 71.0234 12.7528C71.8568 11.0578 73.0121 9.74148 74.4893 8.80398C75.9761 7.86648 77.7043 7.39773 79.674 7.39773C81.6437 7.39773 83.3672 7.86648 84.8445 8.80398C86.3312 9.74148 87.4865 11.0578 88.3104 12.7528C89.1437 14.4479 89.5604 16.4318 89.5604 18.7045C89.5604 20.9583 89.1437 22.928 88.3104 24.6136C87.4865 26.2992 86.3312 27.6108 84.8445 28.5483C83.3672 29.4858 81.6437 29.9545 79.674 29.9545ZM79.674 26.9432C81.1702 26.9432 82.4013 26.5597 83.3672 25.7926C84.3331 25.0256 85.0481 24.017 85.5121 22.767C85.9761 21.517 86.2081 20.1629 86.2081 18.7045C86.2081 17.2462 85.9761 15.8873 85.5121 14.6278C85.0481 13.3684 84.3331 12.3504 83.3672 11.5739C82.4013 10.7973 81.1702 10.4091 79.674 10.4091C78.1778 10.4091 76.9467 10.7973 75.9808 11.5739C75.0149 12.3504 74.3 13.3684 73.8359 14.6278C73.3719 15.8873 73.1399 17.2462 73.1399 18.7045C73.1399 20.1629 73.3719 21.517 73.8359 22.767C74.3 24.017 75.0149 25.0256 75.9808 25.7926C76.9467 26.5597 78.1778 26.9432 79.674 26.9432Z" fill="#242728"/>
</svg>
